# xmcd
#
# Track frame offsets: 
#        150
#        26315
#        40113
#        52658
#        70871
#        95513
#        109292
#        139392
#        158713
#        172300
#        194715
#
# Disc length: 2879 seconds
#
# Revision: 0
# Processed by: cddbd v1.5.2PL0 Copyright (c) Steve Scherf et al.
# Submitted via: ExactAudioCopyFreeDBPlugin 1.0
#
DISCID=980b3d0b
DTITLE=Clark Sisters - Family Christmas (2009)
DYEAR=2009
DGENRE=Christmas Gospel
TTITLE0=Celebration
TTITLE1=Silver Bells
TTITLE2=Oh Come Emmanuel
TTITLE3=Silent Night
TTITLE4=We Are The Reason
TTITLE5=Hark The Herald Angels Sing
TTITLE6=This Christmas
TTITLE7=Beautiful Christmas
TTITLE8=Chipmunk Song
TTITLE9=Do You Hear What I Hear
TTITLE10=Drummer Boy
EXTD=
EXTT0=
EXTT1=
EXTT2=
EXTT3=
EXTT4=
EXTT5=
EXTT6=
EXTT7=
EXTT8=
EXTT9=
EXTT10=
PLAYORDER=
